:FULLY-SPECIFIED
:FORCE-ALL-JOINTS-BE-3DOF
:DEGREES
1053
root 1.24852 15.1936 32.7346 5.54778 -4.06749 363.64
lfemur 7.36208 0.22399 4.87587
ltibia 3.42229 0 0
lfoot -32.4471 -11.4454 0
ltoes -34.1645 0 0
rfemur -29.7472 -13.6037 -7.47259
rtibia 47.7896 0 0
rfoot -21.3398 3.52539 0
rtoes -42.3906 0 0
lowerback -2.60272 -0.125741 -0.432146
upperback -0.766944 -0.10247 -6.26618
thorax 0.627566 -0.0583376 -6.27871
lowerneck -7.45993 0.733504 5.81938
upperneck 2.11183 0.266144 3.86816
head 1.93735 0.294244 0.243253
lclavicle 2.3237e-15 1.67121e-14 0
lhumerus -58.7648 -46.0939 114.923
lradius 55.5352 0 0
lwrist 25.8442 0 0
lhand 38.6384 25.4106 0
lfingers 7.12502 0 0
lthumb 61.2546 37.7849 0
rclavicle 2.3237e-15 1.67121e-14 0
rhumerus 1.79063 -17.0164 0.123015
rradius 29.1604 0 0
rwrist -10.37 0 0
rhand -27.5996 -40.2173 0
rfingers 7.12502 0 0
rthumb -0.999958 -790.141 0
1054
root 1.24988 15.193 32.7322 5.52563 -4.04167 363.621
lfemur 7.35845 0.253357 4.87689
ltibia 3.44318 0 0
lfoot -32.4415 -11.3999 0
ltoes -34.162 0 0
rfemur -29.7791 -13.6572 -7.42418
rtibia 47.8675 0 0
rfoot -21.3496 3.58262 0
rtoes -42.3297 0 0
lowerback -2.58056 -0.123434 -0.439148
upperback -0.756111 -0.100036 -6.25123
thorax 0.628213 -0.0568588 -6.25778
lowerneck -7.46509 0.728372 5.83703
upperneck 2.11536 0.257044 3.87068
head 1.93971 0.290099 0.240697
lclavicle 2.25234e-15 1.74422e-14 0
lhumerus -58.7424 -46.1157 114.937
lradius 55.5416 0 0
lwrist 25.8309 0 0
lhand 38.598 25.4064 0
lfingers 7.12502 0 0
lthumb 61.2204 37.8193 0
rclavicle 2.25234e-15 1.74422e-14 0
rhumerus 1.784 -17.243 0.122815
rradius 29.1104 0 0
rwrist -10.3171 0 0
rhand -27.7215 -40.2599 0
rfingers 7.12502 0 0
rthumb -1.11766 -790.184 0
1055
root 1.25121 15.1923 32.7298 5.50378 -4.01628 363.601
lfemur 7.35497 0.282263 4.87801
ltibia 3.46366 0 0
lfoot -32.4359 -11.3549 0
ltoes -34.1596 0 0
rfemur -29.8104 -13.71 -7.37647
rtibia 47.9443 0 0
rfoot -21.3594 3.63913 0
rtoes -42.2697 0 0
lowerback -2.55871 -0.121134 -0.446041
upperback -0.74542 -0.0976008 -6.23646
thorax 0.628863 -0.0553832 -6.23713
lowerneck -7.47019 0.723324 5.8545
upperneck 2.11884 0.248081 3.87317
head 1.94204 0.286017 0.238167
lclavicle 2.18208e-15 1.81636e-14 0
lhumerus -58.7202 -46.1372 114.951
lradius 55.548 0 0
lwrist 25.8178 0 0
lhand 38.5581 25.4023 0
lfingers 7.12502 0 0
lthumb 61.1867 37.8534 0
rclavicle 2.18208e-15 1.81636e-14 0
rhumerus 1.77766 -17.4669 0.122872
rradius 29.0607 0 0
rwrist -10.2647 0 0
rhand -27.8419 -40.3019 0
rfingers 7.12502 0 0
rthumb -1.2339 -790.227 0
1056
root 1.25252 15.1917 32.7275 5.48227 -3.99136 363.582
lfemur 7.35168 0.310682 4.87922
ltibia 3.48371 0 0
lfoot -32.4306 -11.3105 0
ltoes -34.1574 0 0
rfemur -29.8413 -13.762 -7.32948
rtibia 48.0198 0 0
rfoot -21.3693 3.69488 0
rtoes -42.2105 0 0
lowerback -2.5372 -0.11884 -0.45282
upperback -0.734878 -0.0951625 -6.22191
thorax 0.629518 -0.0539092 -6.21678
lowerneck -7.47522 0.718364 5.87178
upperneck 2.12225 0.239262 3.87562
head 1.94433 0.282002 0.235663
lclavicle 2.11299e-15 1.88763e-14 0
lhumerus -58.6985 -46.1586 114.965
lradius 55.5542 0 0
lwrist 25.805 0 0
lhand 38.5188 25.3984 0
lfingers 7.12502 0 0
lthumb 61.1534 37.887 0
rclavicle 2.11299e-15 1.88763e-14 0
rhumerus 1.77163 -17.688 0.123221
rradius 29.0113 0 0
rwrist -10.213 0 0
rhand -27.9608 -40.3433 0
rfingers 7.12502 0 0
rthumb -1.34864 -790.269 0
